<svg width="40" height="40" viewBox="0 0 40 40" fill="none" xmlns="http://www.w3.org/2000/svg">
<rect width="40" height="40" rx="20" fill="#16B1FF"/>
<path d="M26.9 17.2002C26.1 18.1002 24.6 19.0002 23 19.0002C21.5 19.0002 20.6 18.5002 19.8 18.1002C19 17.8002 18.2 17.3002 16.9 17.3002C15.7 17.3002 14.6 18.0002 14 18.6002L13 17.1002C13.9 16.2002 15.3 15.2002 16.9 15.2002C18.4 15.2002 19.3 15.8002 20.1 16.1002C20.9 16.4002 21.7 17.0002 23 17.0002C24.2 17.0002 25.3 16.2002 25.9 15.6002L26.9 17.2002ZM27 22.1002C26.1 23.0002 24.7 24.0002 23.1 24.0002C21.6 24.0002 20.7 23.5002 19.9 23.1002C19.1 22.8002 18.3 22.2002 17 22.2002C15.8 22.2002 14.7 23.0002 14.1 23.6002L13.1 22.0002C14 21.1002 15.4 20.1002 17 20.1002C18.5 20.1002 19.4 20.6002 20.2 21.0002C21 21.3002 21.8 21.8002 23.1 21.8002C24.3 21.8002 25.4 21.0002 26 20.4002L27 22.1002Z" fill="white"/>
</svg>
