<svg width="40" height="40" viewBox="0 0 40 40" fill="none" xmlns="http://www.w3.org/2000/svg">
<rect width="40" height="40" rx="20" fill="#9155FD"/>
<path d="M19.6118 16.69C19.4102 16.69 19.2169 16.7701 19.0744 16.9126C18.9319 17.0551 18.8518 17.2484 18.8518 17.45V28.9C18.8518 29.32 19.1918 29.66 19.6118 29.66C19.8018 29.66 19.9618 29.6 20.0918 29.5L22.0018 27.95L23.6618 31.57C23.7918 31.84 24.0618 32 24.3518 32C24.4618 32 24.5718 32 24.6818 31.92L27.4418 30.64C27.8218 30.46 28.0018 30 27.8018 29.63L26.1318 26L28.5418 25.55C28.7018 25.5 28.8518 25.43 28.9718 25.29C29.2418 24.97 29.2018 24.5 28.8518 24.21L20.1118 16.86L20.1018 16.87C19.9718 16.76 19.8018 16.69 19.6118 16.69ZM23.8518 18V16H28.8518V18H23.8518ZM22.6818 12.76L25.5118 9.93L26.9218 11.34L24.0918 14.17L22.6818 12.76ZM18.8518 8H20.8518V13H18.8518V8ZM12.7818 22.66L15.6118 19.83L17.0218 21.24L14.1918 24.07L12.7818 22.66ZM12.7818 11.34L14.1918 9.93L17.0218 12.76L15.6118 14.17L12.7818 11.34ZM15.8518 18H10.8518V16H15.8518V18Z" fill="white"/>
</svg>
