<svg width="40" height="40" viewBox="0 0 40 40" fill="none" xmlns="http://www.w3.org/2000/svg">
<rect width="40" height="40" rx="20" fill="#9155FD"/>
<path d="M14.1667 30.5H10.8333C10.6123 30.5 10.4003 30.3947 10.244 30.2072C10.0877 30.0196 9.99994 29.7652 10 29.5V21.5C9.99994 21.2348 10.0877 20.9804 10.244 20.7928C10.4003 20.6053 10.6123 20.5 10.8333 20.5H14.1667C14.3877 20.5 14.5997 20.6053 14.756 20.7928C14.9123 20.9804 15.0001 21.2348 15 21.5V29.5C15.0001 29.7652 14.9123 30.0196 14.756 30.2072C14.5997 30.3947 14.3877 30.5 14.1667 30.5Z" fill="white"/>
<path d="M22.1667 30.5H18.8333C18.6123 30.5 18.4003 30.3995 18.244 30.2205C18.0877 30.0415 17.9999 29.7986 18 29.5455V10.4545C17.9999 10.2014 18.0877 9.95853 18.244 9.77951C18.4003 9.60048 18.6123 9.5 18.8333 9.5H22.1667C22.3877 9.5 22.5997 9.60048 22.756 9.77951C22.9123 9.95853 23.0001 10.2014 23 10.4545V29.5455C23.0001 29.7986 22.9123 30.0415 22.756 30.2205C22.5997 30.3995 22.3877 30.5 22.1667 30.5Z" fill="white"/>
<path d="M29.1667 30.5H25.8333C25.6123 30.5 25.4003 30.4023 25.244 30.2281C25.0877 30.0539 24.9999 29.8177 25 29.5714V18.4286C24.9999 18.1823 25.0877 17.9461 25.244 17.7719C25.4003 17.5977 25.6123 17.5 25.8333 17.5H29.1667C29.3877 17.5 29.5997 17.5977 29.756 17.7719C29.9123 17.9461 30.0001 18.1823 30 18.4286V29.5714C30.0001 29.8177 29.9123 30.0539 29.756 30.2281C29.5997 30.4023 29.3877 30.5 29.1667 30.5Z" fill="white"/>
</svg>
