<svg width="40" height="40" viewBox="0 0 40 40" fill="none" xmlns="http://www.w3.org/2000/svg">
<rect width="40" height="40" rx="20" fill="#FFB400"/>
<path d="M20 8L19.34 8.03L23.15 11.84L24.5 10.5C27.75 12.07 30.09 15.24 30.4501 19H31.9501C31.4401 12.84 26.29 8 20 8ZM20 12C18.07 12 16.5 13.57 16.5 15.5C16.5 17.43 18.07 19 20 19C21.93 19 23.5 17.43 23.5 15.5C23.5 13.57 21.93 12 20 12ZM8.05005 21C8.56005 27.16 13.71 32 20 32L20.66 31.97L16.85 28.16L15.5 29.5C12.25 27.94 9.91005 24.76 9.55005 21H8.05005ZM20 21C16.13 21 13 22.57 13 24.5V26H27V24.5C27 22.57 23.87 21 20 21Z" fill="white"/>
</svg>
