<svg width="40" height="40" viewBox="0 0 40 40" fill="none" xmlns="http://www.w3.org/2000/svg">
<rect width="40" height="40" rx="20" fill="#16B1FF"/>
<path d="M19 16.5C19 18.71 17.21 20.5 15 20.5C12.79 20.5 11 18.71 11 16.5C11 14.29 12.79 12.5 15 12.5C17.21 12.5 19 14.29 19 16.5ZM19 23.22V28.5H8V26.5C8 24.29 11.13 22.5 15 22.5C16.5 22.5 17.87 22.77 19 23.22ZM32 28.5H21V11.5H32V28.5ZM24 20C24 18.62 25.12 17.5 26.5 17.5C27.88 17.5 29 18.62 29 20C29 21.38 27.88 22.5 26.5 22.5C25.12 22.5 24 21.38 24 20ZM30 15.5C28.9 15.5 28 14.61 28 13.5H25C25 14.61 24.11 15.5 23 15.5V24.5C24.11 24.5 25 25.4 25 26.5H28C28 25.4 28.9 24.5 30 24.5V15.5Z" fill="white"/>
</svg>
