<svg width="40" height="40" viewBox="0 0 40 40" fill="none" xmlns="http://www.w3.org/2000/svg">
<rect width="40" height="40" rx="20" fill="#FFB400"/>
<path d="M20 17C20.7956 17 21.5587 17.3161 22.1213 17.8787C22.6839 18.4413 23 19.2044 23 20C23 20.7956 22.6839 21.5587 22.1213 22.1213C21.5587 22.6839 20.7956 23 20 23C19.2044 23 18.4413 22.6839 17.8787 22.1213C17.3161 21.5587 17 20.7956 17 20C17 19.2044 17.3161 18.4413 17.8787 17.8787C18.4413 17.3161 19.2044 17 20 17ZM20 12.5C25 12.5 29.27 15.61 31 20C29.27 24.39 25 27.5 20 27.5C15 27.5 10.73 24.39 9 20C10.73 15.61 15 12.5 20 12.5ZM11.18 20C12.83 23.36 16.24 25.5 20 25.5C23.76 25.5 27.17 23.36 28.82 20C27.17 16.64 23.76 14.5 20 14.5C16.24 14.5 12.83 16.64 11.18 20Z" fill="white"/>
</svg>
