<svg width="230" height="43" viewBox="0 0 230 43" fill="none" xmlns="http://www.w3.org/2000/svg">
<path d="M162.286 39.7389C154.624 39.7389 150.888 35.9056 150.888 30.8796V29.5848H157.06V30.5304C157.06 33.4181 159.501 34.6619 162.584 34.6619C165.668 34.6619 167.857 32.5237 167.857 28.9374C167.857 24.2607 163.679 23.2641 161.937 23.2641H159.398V18.7365H161.937C165.17 18.7365 167.214 17.0456 167.214 13.3102C167.214 9.67704 164.475 8.28426 162.286 8.28426C158.853 8.28426 157.26 10.1243 157.26 12.9609V13.3102H151.238V12.1176C151.238 6.98945 155.369 3.06241 162.435 3.06241C170.2 3.06241 173.484 7.73908 173.484 12.42C173.484 16.3002 171.392 19.5372 168.309 20.5807V20.7809C171.546 21.7265 174.63 24.6143 174.63 29.1419C174.63 36.3528 168.658 39.7389 162.286 39.7389Z" fill="white"/>
<path d="M188.557 39.7389C181.887 39.7389 176.763 35.6585 176.763 29.2398V13.7617C176.763 7.09167 182.237 3.06241 188.958 3.06241C195.875 3.06241 200.202 6.44852 200.202 11.9685V13.2122H194.03V12.5137C194.03 9.67704 191.939 8.1863 188.855 8.1863C185.222 8.1863 183.433 10.5246 183.433 13.5615V20.4274C185.325 18.4383 188.357 17.0924 191.543 17.0924C196.918 17.0924 200.649 20.1293 200.649 25.0061V29.9341C200.654 36.3528 195.278 39.7389 188.557 39.7389ZM194.282 25.6535C194.282 22.3185 191.445 21.373 189.056 21.373C186.517 21.373 183.433 23.4132 183.433 27.0974V29.3378C183.433 32.1233 185.222 34.6107 188.855 34.6107C192.489 34.6107 194.282 32.4726 194.282 29.883V25.6535Z" fill="white"/>
<path d="M215.08 39.7389C208.861 39.7389 202.689 36.702 202.689 29.1376V13.9576C202.689 6.59334 208.712 3.05815 215.131 3.05815C221.549 3.05815 227.376 6.49111 227.376 14.0044V28.9843C227.372 36.1057 221.302 39.7389 215.08 39.7389ZM220.753 13.7617C220.753 10.7248 218.811 8.28852 215.131 8.28852C211.446 8.28852 209.359 10.7759 209.359 13.9619V28.8906C209.359 31.9274 211.297 34.5128 215.08 34.5128C218.811 34.5128 220.753 31.8252 220.753 28.8394V13.7617Z" fill="white"/>
<path d="M58.2666 39.1043H42.3157V3.45426H58.1644C66.3166 3.45426 73.2166 6.95537 73.2166 15.6059V26.1561C73.2166 35.4541 66.2186 39.1043 58.2666 39.1043ZM61.9168 16.6069C61.9168 13.9576 60.0683 12.207 57.1677 12.207H53.5175V30.4069H57.419C60.5197 30.4069 61.9168 28.1069 61.9168 25.9048V16.6069Z" fill="#F4F5FA"/>
<path d="M91.51 39.7048C83.3109 39.7048 75.5591 36.4039 75.5591 25.9048V16.7559C75.5591 7.10445 83.1108 2.85371 91.3609 2.85371C99.5089 2.85371 107.461 6.30371 107.461 16.7559V25.8537C107.457 36.0546 99.4067 39.7048 91.51 39.7048ZM96.1569 16.4067C96.1569 13.2037 93.9591 11.6065 91.4589 11.6065C88.4604 11.6065 86.8589 13.1569 86.8589 16.4067V25.9048C86.8589 29.1546 88.4604 30.9563 91.5611 30.9563C94.4106 30.9563 96.1611 29.1078 96.1611 26.105V16.4067H96.1569Z" fill="#F4F5FA"/>
<path d="M138.4 39.1043V19.7459H138.298L132.966 39.1043H125.84L120.196 19.7459H120.047V39.1043H109.995V3.45426H123.996L129.294 18.153L134.593 3.45426H148.495V39.1043H138.4Z" fill="#F4F5FA"/>
<path d="M30.0106 38.8274C30.0106 34.5724 33.4606 31.1224 37.7156 31.1224V29.2356C32.4171 29.2356 28.1238 33.5289 28.1238 38.8274H30.0106Z" fill="white" fill-opacity="0.3334"/>
<path d="M19.7672 38.8274C19.7672 28.9119 27.8045 20.8789 37.7158 20.8789V17.7398C26.071 17.7398 16.6282 27.1826 16.6282 38.8274H19.7672Z" fill="white" fill-opacity="0.6668"/>
<path d="M13.7021 38.8274C13.7021 25.5641 24.4525 14.8137 37.7158 14.8137V11.0485C22.3739 11.0485 9.94116 23.4856 9.94116 38.8232L13.7021 38.8274Z" fill="white" fill-opacity="0.8335"/>
<path d="M25.2019 38.8274C25.2019 31.9146 30.8071 26.3137 37.7156 26.3137V23.8007C29.4186 23.8007 22.689 30.5261 22.689 38.8274H25.2019Z" fill="white" fill-opacity="0.5"/>
<path d="M7.01497 38.8274C7.01497 21.8713 20.7596 8.12667 37.7157 8.12667V3.73963C18.3361 3.73963 2.62793 19.4478 2.62793 38.8274H7.01497Z" fill="white"/>
<path d="M34.1934 38.8274C34.1934 36.8809 35.7693 35.305 37.7158 35.305V34.0443C35.075 34.0443 32.9326 36.1867 32.9326 38.8274H34.1934Z" fill="white" fill-opacity="0.1667"/>
</svg>
